# xmcd
#
# Track frame offsets:
#	150
#	13517
#	25373
#	38308
#	49699
#	62167
#	74615
#	89025
#	101623
#	115895
#	127716
#	138623
#
# Disc length: 1983 seconds
#
# Revision: 0
# Processed by: cddbd v1.5.2PL0 Copyright (c) Steve Scherf et al.
# Submitted via: EasyCDDAExtractor 16.0.6.1
#
DISCID=a107bd0c
DTITLE=Θωμάς Θόδωρος - Λαϊκό μονοπάτι-Θ. Θωμάς
DYEAR=1978
DGENRE=Λαϊκή
TTITLE0=Ένας άνθρωπος [Μ. Χριστοπούλου-Σ. Καρίπη]
TTITLE1=Σε χρειάζομαι [Μ. Χριστοπούλου-Σ. Καρίπη]
TTITLE2=Υπάρχεις [Μ. Χριστοπούλου-Σ. Καρίπη]
TTITLE3=Με συγκλονίζεις [Μ. Χριστοπούλου-Σ. Καρίπη]
TTITLE4=Χάρε αν θες μαλώνουμε [Μ. Χριστοπούλου-Σ. Καρίπη]
TTITLE5=Αυτό το πρόσωπο [Μ. Χριστοπούλου-Σ. Καρίπη]
TTITLE6=Ο τρίτος άνθρωπος [Δ. Γκούτη-Θ. Θωμά]
TTITLE7=Είμαι αδιόρθωτο παιδί [Β. Ζαΐμη-Θ. Θωμά]
TTITLE8=Τώρα ή ποτέ [Δ. Γκούτη-Θ. Θωμά]
TTITLE9=Η γυναίκα δεν αλλάζει [Θ. Θωμά]
TTITLE10=Τράπουλα καταραμένη [Δ. Γκούτη-Θ. Θωμά]
TTITLE11=Κράτα αδελφέ μου [Θ. Θωμά]
EXTD=
EXTT0=
EXTT1=
EXTT2=
EXTT3=
EXTT4=
EXTT5=
EXTT6=
EXTT7=
EXTT8=
EXTT9=
EXTT10=
EXTT11=
PLAYORDER=
